<svg width="22" height="14" viewBox="0 0 22 14" fill="none" xmlns="http://www.w3.org/2000/svg">
<path d="M21.8814 12.5497C20.9829 10.8733 18.6685 8.85905 17.713 7.98253C17.4515 7.74253 17.4235 7.32734 17.6615 7.06194C19.4849 5.03055 20.9434 2.69643 21.4454 1.28602C21.6669 0.662964 21.2084 0.00466502 20.5624 0.00466502H18.686C18.0675 0.00466502 17.7055 0.234811 17.533 0.601281C16.0175 3.82073 14.7175 5.21404 13.8075 6.02836C13.298 6.48451 12.5035 6.10663 12.5035 5.41257C12.5035 4.07523 12.5035 2.34655 12.5035 1.12066C12.5035 0.526121 12.0345 0.045096 11.456 0.045096L8.02809 0.00466502C7.59659 0.00466502 7.3501 0.511089 7.60909 0.866156L8.17509 1.70847C8.38808 2.0003 8.50308 2.35536 8.50308 2.71976L8.50008 6.51301C8.50008 7.17287 7.72859 7.49528 7.2706 7.03292C5.72112 5.46855 4.37663 2.27398 3.89264 0.746418C3.75264 0.304269 3.35315 0.00570171 2.90015 0.00466502L1.05168 0C0.358184 0 -0.14881 0.681625 0.0396876 1.36791C1.72867 7.51394 5.19412 13.3609 11.37 13.9948C11.9785 14.057 12.5035 13.549 12.5035 12.9203V10.9267C12.5035 10.355 12.936 9.8636 13.492 9.84909C13.5115 9.84857 13.531 9.84857 13.5505 9.84857C15.184 9.84857 17.0135 12.3133 17.6535 13.4661C17.8375 13.7978 18.1815 14 18.5535 14H21.0399C21.7654 14 22.2309 13.2023 21.8814 12.5497Z" fill="black"/>
</svg>
