<svg width="58" height="60" viewBox="0 0 58 60" fill="none" xmlns="http://www.w3.org/2000/svg">
<path d="M29 0C27.509 0 26.0275 0.484616 24.7512 1.37077L20.8005 4.03846L16.2487 4.61538H16.1747L16.1008 4.68692C14.6079 5.01303 13.2412 5.74174 12.159 6.78856C11.0768 7.83539 10.3235 9.15747 9.98634 10.6015L9.91478 10.6731V10.7446L9.31836 15.2169L6.56055 18.6785L6.4842 18.75V18.8215C4.81663 21.3992 4.74268 24.7269 6.56055 27.1869L9.39232 31.0085L10.139 34.9777L2.45961 46.2969L0 49.8323H11.4058L14.1636 56.0331L15.8789 60L18.3385 56.3931L25.8676 45.4315C27.8907 46.2346 30.1737 46.3085 32.1324 45.4315L39.6615 56.3931L42.1211 60L43.8364 56.0331L46.5942 49.8323H58L55.5404 46.2969L48.0852 35.3377L48.6816 31.0108L51.4395 27.1892L51.5158 27.1177V27.0462C53.1834 24.4685 53.2573 21.2123 51.4395 18.7523L48.6816 14.9285L47.787 10.6015H47.861C47.8514 10.5462 47.7966 10.5092 47.787 10.4562C47.3576 7.43769 44.8885 4.98692 41.7489 4.61538H41.6726L37.1995 4.03846L33.2489 1.37077C32.015 0.496426 30.5294 0.0171428 29 0ZM29 4.68692C29.5487 4.68692 30.0902 4.84846 30.491 5.12077L34.7399 8.07692L35.2623 8.43692L35.8588 8.51077L41.0786 9.23077H41.1501C42.2237 9.34615 42.968 10.0685 43.0897 11.1069V11.25L44.0606 16.3708L44.1322 16.8762L44.5067 17.3077L47.5628 21.4177C48.1329 22.1838 48.2069 23.4831 47.4888 24.5908L44.1346 29.1346L44.0582 29.7115L43.3139 34.7608V34.83C43.2742 35.1906 43.1467 35.537 42.9418 35.8408L42.7915 35.9146V35.9838C42.4369 36.3958 41.9284 36.6554 41.3768 36.7062H41.2265L35.7848 37.6454L35.1884 37.7146L34.7399 38.0769L30.491 41.0331C29.699 41.5846 28.2819 41.6562 27.1368 40.9615L23.2601 38.0769L22.8116 37.7169L22.1412 37.6431L16.9214 36.9231H16.8499C16.5125 36.8943 16.1873 36.7874 15.9017 36.6115C15.616 36.4356 15.3783 36.1958 15.2085 35.9123C15.05 35.6462 14.9486 35.3518 14.9103 35.0469V34.9038L13.9418 29.64L13.8654 29.0631L13.4933 28.6292L10.4372 24.5192C9.86706 23.7531 9.79311 22.3823 10.5112 21.2746L13.4933 17.5246L13.8654 17.0908L13.9394 16.4423L14.6121 11.61C14.6217 11.5754 14.6765 11.5754 14.6861 11.5385C14.8348 10.9829 15.1344 10.476 15.5539 10.0702C15.9734 9.66448 16.4974 9.37463 17.0717 9.23077C17.1099 9.22154 17.1099 9.16846 17.1457 9.15923L22.1412 8.50846L22.7377 8.43923L23.2601 8.07692L27.509 5.12077C27.9098 4.85077 28.4513 4.68692 29 4.68692ZM45.4753 39.8077L49.1301 45.2169H43.3855L42.7891 46.6592L41.1501 50.3354L36.0806 42.8354L37.1971 42.0438L41.8968 41.25V41.3215C41.9517 41.3123 41.9875 41.2592 42.0448 41.25C43.3004 41.0748 44.4867 40.5767 45.4753 39.8077ZM12.5247 39.8792C13.5606 40.7902 14.862 41.3697 16.2511 41.5385H16.325L20.8745 42.1154L21.917 42.9092L16.8475 50.3354L15.2085 46.6592L14.6121 45.2169H8.87224L12.5247 39.8792Z" fill="black"/>
</svg>
