<svg width="64" height="56" viewBox="0 0 64 56" fill="none" xmlns="http://www.w3.org/2000/svg">
<path d="M11 19.875L12.7033 20.9232L15.9732 15.6096L10.2235 18.0319L11 19.875ZM2 34.5L0.0126504 34.2754L3.70332 35.5482L2 34.5ZM53 19.875L53.7765 18.0319L48.0268 15.6096L51.2967 20.9232L53 19.875ZM62 34.5L60.2967 35.5482L63.9873 34.2754L62 34.5ZM23 19.875L23.5094 17.941L17.7112 16.4138L21.4316 21.116L23 19.875ZM41 19.875L42.5684 21.116L46.2888 16.4138L40.4906 17.941L41 19.875ZM26 44.25L27.4696 45.6066L31.6027 41.1291L25.6201 42.2864L26 44.25ZM17 54L15.0932 53.3965L18.4696 55.3566L17 54ZM38.3799 42.2864C37.2954 42.0766 36.2462 42.7857 36.0364 43.8701C35.8266 44.9546 36.5357 46.0038 37.6201 46.2136L38.3799 42.2864ZM45.0932 54.6035C45.4265 55.6566 46.5504 56.2401 47.6035 55.9068C48.6566 55.5735 49.2401 54.4496 48.9068 53.3965L45.0932 54.6035ZM11 19.875C10.2235 18.0319 10.2224 18.0323 10.2213 18.0328C10.2209 18.033 10.2197 18.0335 10.2189 18.0338C10.2172 18.0346 10.2154 18.0353 10.2135 18.0361C10.2097 18.0378 10.2054 18.0396 10.2006 18.0417C10.1911 18.0458 10.1797 18.0508 10.1664 18.0567C10.14 18.0684 10.1062 18.0837 10.0655 18.1027C9.98428 18.1407 9.87548 18.1936 9.74273 18.2627C9.47738 18.4008 9.11532 18.6041 8.68572 18.8829C7.82719 19.4401 6.69266 20.3031 5.52122 21.5559C3.1598 24.0813 0.707094 28.1305 0.0126504 34.2754L3.98735 34.7246C4.57841 29.4945 6.6257 26.2312 8.4429 24.2879C9.36077 23.3063 10.2352 22.6458 10.8633 22.2382C11.177 22.0346 11.4277 21.8951 11.5893 21.811C11.67 21.769 11.7282 21.741 11.7606 21.7258C11.7767 21.7183 11.7864 21.7139 11.7892 21.7127C11.7906 21.7121 11.7903 21.7122 11.7882 21.7131C11.7871 21.7136 11.7856 21.7142 11.7837 21.7151C11.7827 21.7155 11.7816 21.7159 11.7804 21.7164C11.7798 21.7167 11.7788 21.7171 11.7785 21.7172C11.7775 21.7177 11.7765 21.7181 11 19.875ZM3.70332 35.5482L12.7033 20.9232L9.29668 18.8268L0.296683 33.4518L3.70332 35.5482ZM53 19.875C52.2235 21.7181 52.2225 21.7177 52.2215 21.7172C52.2212 21.7171 52.2202 21.7167 52.2196 21.7164C52.2184 21.7159 52.2173 21.7155 52.2163 21.7151C52.2144 21.7142 52.2129 21.7136 52.2118 21.7131C52.2097 21.7122 52.2094 21.7121 52.2108 21.7127C52.2136 21.7139 52.2233 21.7183 52.2394 21.7258C52.2718 21.741 52.33 21.769 52.4107 21.811C52.5723 21.8951 52.823 22.0346 53.1367 22.2382C53.7648 22.6458 54.6392 23.3063 55.5571 24.2879C57.3743 26.2312 59.4216 29.4945 60.0127 34.7246L63.9873 34.2754C63.2929 28.1305 60.8402 24.0813 58.4788 21.5559C57.3073 20.3031 56.1728 19.4401 55.3143 18.8829C54.8847 18.6041 54.5226 18.4008 54.2573 18.2627C54.1245 18.1936 54.0157 18.1407 53.9345 18.1027C53.8938 18.0837 53.86 18.0684 53.8336 18.0567C53.8203 18.0508 53.8089 18.0458 53.7994 18.0417C53.7946 18.0396 53.7903 18.0378 53.7865 18.0361C53.7846 18.0353 53.7828 18.0346 53.7811 18.0338C53.7803 18.0335 53.7791 18.033 53.7787 18.0328C53.7776 18.0323 53.7765 18.0319 53 19.875ZM63.7033 33.4518L54.7033 18.8268L51.2967 20.9232L60.2967 35.5482L63.7033 33.4518ZM23 19.875C22.4906 21.809 22.4895 21.8088 22.4885 21.8085C22.4882 21.8084 22.4871 21.8081 22.4865 21.808C22.4852 21.8076 22.4841 21.8073 22.483 21.807C22.4809 21.8065 22.4792 21.806 22.478 21.8057C22.4754 21.805 22.4745 21.8047 22.4753 21.8049C22.4767 21.8053 22.4845 21.8075 22.4983 21.8118C22.526 21.8202 22.5776 21.8365 22.6503 21.862C22.7958 21.9131 23.024 22.0005 23.3121 22.134C23.8896 22.4016 24.6967 22.8499 25.5576 23.5551C27.2528 24.9439 29.2304 27.3854 30.0351 31.6231L33.9649 30.8769C32.9696 25.636 30.4472 22.3899 28.0924 20.4609C26.9283 19.5072 25.8229 18.889 24.9942 18.5048C24.5791 18.3125 24.2308 18.1776 23.9755 18.088C23.8478 18.0431 23.7429 18.0094 23.6643 17.9855C23.6249 17.9735 23.5921 17.9639 23.5662 17.9565C23.5532 17.9529 23.5419 17.9497 23.5325 17.9472C23.5277 17.9459 23.5234 17.9447 23.5196 17.9437C23.5177 17.9432 23.5159 17.9427 23.5142 17.9422C23.5133 17.942 23.5121 17.9417 23.5117 17.9416C23.5105 17.9413 23.5094 17.941 23 19.875ZM33.5684 30.009L24.5684 18.634L21.4316 21.116L30.4316 32.491L33.5684 30.009ZM41 19.875C40.4906 17.941 40.4895 17.9413 40.4883 17.9416C40.4879 17.9417 40.4867 17.942 40.4858 17.9422C40.4841 17.9427 40.4823 17.9432 40.4804 17.9437C40.4766 17.9447 40.4723 17.9459 40.4675 17.9472C40.4581 17.9497 40.4468 17.9529 40.4338 17.9565C40.4079 17.9639 40.3751 17.9735 40.3357 17.9855C40.2571 18.0094 40.1522 18.0431 40.0245 18.088C39.7692 18.1776 39.4209 18.3125 39.0058 18.5048C38.1771 18.889 37.0717 19.5072 35.9076 20.4609C33.5528 22.3899 31.0304 25.636 30.0351 30.8769L33.9649 31.6231C34.7696 27.3854 36.7472 24.9439 38.4424 23.5551C39.3033 22.8499 40.1104 22.4016 40.6879 22.134C40.976 22.0005 41.2042 21.9131 41.3497 21.862C41.4224 21.8365 41.474 21.8202 41.5017 21.8118C41.5155 21.8075 41.5233 21.8053 41.5247 21.8049C41.5255 21.8047 41.5246 21.805 41.522 21.8057C41.5208 21.806 41.5191 21.8065 41.517 21.807C41.5159 21.8073 41.5148 21.8076 41.5135 21.808C41.5129 21.8081 41.5118 21.8084 41.5115 21.8085C41.5105 21.8088 41.5094 21.809 41 19.875ZM33.5684 32.491L42.5684 21.116L39.4316 18.634L30.4316 30.009L33.5684 32.491ZM26 44.25C25.6201 42.2864 25.6189 42.2866 25.6177 42.2869C25.6173 42.287 25.616 42.2872 25.6151 42.2874C25.6134 42.2877 25.6115 42.2881 25.6095 42.2885C25.6056 42.2893 25.6013 42.2901 25.5966 42.2911C25.5872 42.293 25.5762 42.2953 25.5637 42.298C25.5387 42.3033 25.5075 42.3102 25.4706 42.3189C25.3968 42.3363 25.2998 42.3607 25.182 42.3939C24.9466 42.4602 24.6273 42.5616 24.2448 42.7112C23.4805 43.0102 22.4575 43.5043 21.3472 44.3003C19.1031 45.9091 16.5806 48.6969 15.0932 53.3965L18.9068 54.6035C20.1194 50.7719 22.0969 48.6846 23.6778 47.5512C24.48 46.9762 25.2008 46.6324 25.7021 46.4363C25.9524 46.3383 26.1464 46.2779 26.2661 46.2442C26.3258 46.2274 26.3667 46.2173 26.3866 46.2126C26.3964 46.2103 26.401 46.2093 26.4 46.2095C26.3995 46.2097 26.3976 46.2101 26.3943 46.2107C26.3926 46.2111 26.3906 46.2115 26.3882 46.212C26.387 46.2122 26.3857 46.2125 26.3843 46.2127C26.3836 46.2129 26.3825 46.2131 26.3821 46.2132C26.381 46.2134 26.3799 46.2136 26 44.25ZM18.4696 55.3566L27.4696 45.6066L24.5304 42.8934L15.5304 52.6434L18.4696 55.3566ZM38 44.25C37.6201 46.2136 37.619 46.2134 37.6179 46.2132C37.6175 46.2131 37.6164 46.2129 37.6157 46.2127C37.6143 46.2125 37.613 46.2122 37.6118 46.212C37.6094 46.2115 37.6074 46.2111 37.6057 46.2107C37.6024 46.2101 37.6005 46.2097 37.6 46.2095C37.599 46.2093 37.6036 46.2103 37.6134 46.2126C37.6333 46.2173 37.6742 46.2274 37.7339 46.2442C37.8536 46.2779 38.0476 46.3383 38.2979 46.4363C38.7992 46.6324 39.52 46.9762 40.3222 47.5512C41.9031 48.6846 43.8806 50.7719 45.0932 54.6035L48.9068 53.3965C47.4194 48.6969 44.8969 45.9091 42.6528 44.3003C41.5425 43.5043 40.5195 43.0102 39.7552 42.7112C39.3727 42.5616 39.0534 42.4602 38.818 42.3939C38.7002 42.3607 38.6032 42.3363 38.5294 42.3189C38.4925 42.3102 38.4613 42.3033 38.4363 42.298C38.4238 42.2953 38.4128 42.293 38.4034 42.2911C38.3987 42.2901 38.3944 42.2893 38.3905 42.2885C38.3885 42.2881 38.3866 42.2877 38.3849 42.2874C38.384 42.2872 38.3827 42.287 38.3823 42.2869C38.3811 42.2866 38.3799 42.2864 38 44.25ZM37.5 39.375C37.5 42.9115 34.8899 45.5 32 45.5V49.5C37.3944 49.5 41.5 44.8131 41.5 39.375H37.5ZM32 45.5C29.1101 45.5 26.5 42.9115 26.5 39.375H22.5C22.5 44.8131 26.6056 49.5 32 49.5V45.5ZM26.5 39.375C26.5 35.8385 29.1101 33.25 32 33.25V29.25C26.6056 29.25 22.5 33.9369 22.5 39.375H26.5ZM32 33.25C34.8899 33.25 37.5 35.8385 37.5 39.375H41.5C41.5 33.9369 37.3944 29.25 32 29.25V33.25ZM54 11.75C54 16.1839 50.7183 19.5 47 19.5V23.5C53.2228 23.5 58 18.0856 58 11.75H54ZM47 19.5C43.2817 19.5 40 16.1839 40 11.75H36C36 18.0856 40.7772 23.5 47 23.5V19.5ZM40 11.75C40 7.31605 43.2817 4 47 4V0C40.7772 0 36 5.4144 36 11.75H40ZM47 4C50.7183 4 54 7.31605 54 11.75H58C58 5.4144 53.2228 0 47 0V4ZM24 11.75C24 16.1839 20.7183 19.5 17 19.5V23.5C23.2228 23.5 28 18.0856 28 11.75H24ZM17 19.5C13.2817 19.5 10 16.1839 10 11.75H6C6 18.0856 10.7772 23.5 17 23.5V19.5ZM10 11.75C10 7.31605 13.2817 4 17 4V0C10.7772 0 6 5.4144 6 11.75H10ZM17 4C20.7183 4 24 7.31605 24 11.75H28C28 5.4144 23.2228 0 17 0V4Z" fill="black"/>
</svg>
