<svg width="20" height="23" viewBox="0 0 20 23" fill="none" xmlns="http://www.w3.org/2000/svg">
<path d="M10.7251 22.657C2.89626 22.657 0.804538 14.496 1.75005 9.1489C1.7912 8.91618 2.09625 8.84913 2.22918 9.04456C2.64081 9.64956 3.00711 10.5234 3.61401 10.4476C4.52621 10.3335 5.15817 2.28435 10.5645 0.0195176C10.7361 -0.0523502 10.9156 0.0840083 10.8967 0.269036C10.6294 2.89195 12.2042 6.64703 14.9943 6.64703C16.5936 6.64703 17.6879 5.37058 18.2348 4.08865C18.4009 3.69925 18.9698 3.74833 19.0651 4.16084C20.0408 8.3867 22.6492 22.657 10.7251 22.657Z" fill="#FF8F1F"/>
<path d="M7.98055 14.7876C8.16465 14.6329 8.44414 14.7391 8.48594 14.9759C8.58374 15.53 8.90536 16.4823 9.96032 16.4823C11.2293 16.4823 12.0906 12.9903 12.3164 11.9633C12.3536 11.7944 12.5182 11.6796 12.6878 11.7141C15.8592 12.3589 17.4012 22.657 10.4281 22.657C5.35183 22.657 6.50185 16.0298 7.98055 14.7876ZM16.6465 3.63522C16.7582 2.76102 15.1624 5.15205 15.1624 5.15205C15.1624 5.15205 16.379 5.72672 16.6465 3.63522ZM0.566758 16.6726C0.600395 16.3005 0.121632 15.3041 0.0368664 15.6986C-0.166024 16.6425 0.53312 17.0448 0.566758 16.6726Z" fill="#FFB636"/>
<path d="M13.3356 15.612C13.2167 15.1161 12.7902 16.2681 12.8438 16.7373C12.8974 17.2065 13.6201 16.7987 13.3356 15.612Z" fill="#FFD469"/>
</svg>
