<svg width="20" height="10" viewBox="0 0 20 10" fill="none" xmlns="http://www.w3.org/2000/svg">
<path d="M1.66436 0.252591C1.25158 -0.114327 0.619509 -0.0771466 0.252591 0.335636C-0.114327 0.748419 -0.0771466 1.38049 0.335636 1.74741L1.66436 0.252591ZM10 9L9.33564 9.74741C9.71452 10.0842 10.2855 10.0842 10.6644 9.74741L10 9ZM19.6644 1.74741C20.0771 1.38049 20.1143 0.748419 19.7474 0.335636C19.3805 -0.0771466 18.7484 -0.114327 18.3356 0.252591L19.6644 1.74741ZM0.335636 1.74741L9.33564 9.74741L10.6644 8.25259L1.66436 0.252591L0.335636 1.74741ZM10.6644 9.74741L19.6644 1.74741L18.3356 0.252591L9.33564 8.25259L10.6644 9.74741Z" fill="black"/>
</svg>
