<svg width="262" height="32" viewBox="0 0 262 32" fill="none" xmlns="http://www.w3.org/2000/svg">
<path d="M1 1.17773H25.4453V4.7695H3.98304V14.0533H25.4453V30.9996H1V27.3463H22.4735V17.7067H1V1.17773Z" fill="black" stroke="black" stroke-width="0.25" stroke-miterlimit="10"/>
<path d="M33.3588 30.9997H30.3311V1.12305H33.3588V14.1766H51.7934V1.12305H54.7765V30.9997H51.7934V17.8846H33.3588V30.9997Z" fill="black" stroke="black" stroke-width="0.25" stroke-miterlimit="10"/>
<path d="M59.6677 1.12305H84.113V30.9997H81.13V17.8846H62.6954V30.9997H59.6621L59.6677 1.12305ZM81.13 4.76955H62.6954V14.1766H81.13V4.76955Z" fill="black" stroke="black" stroke-width="0.25" stroke-miterlimit="10"/>
<path d="M92.0328 30.9993H88.9995V1.06104L101.239 15.9686L113.462 1.06104V30.9993H110.428V9.98232L101.239 21.2365L92.0496 9.98232L92.0328 30.9993Z" fill="black" stroke="black" stroke-width="0.25" stroke-miterlimit="10"/>
<path d="M118.332 30.9993V1.06104H142.353V4.76914H121.349V14.1761H131.856V17.8842H121.349V27.2844H142.761V30.9993H118.332Z" fill="black" stroke="black" stroke-width="0.25" stroke-miterlimit="10"/>
<path d="M172.112 30.9998H147.667V1H150.7V27.2848H172.112V30.9998Z" fill="black" stroke="black" stroke-width="0.25" stroke-miterlimit="10"/>
<path d="M177 30.9993V1.06104H201.02V4.76914H180.033V14.1761H190.541V17.8842H180.033V27.2844H201.445V30.9993H177Z" fill="black" stroke="black" stroke-width="0.25" stroke-miterlimit="10"/>
<path d="M206.335 1.17773H230.781V4.76949H209.318V14.0533H230.781V30.9996H206.335V27.3463H227.798V17.7067H206.335V1.17773Z" fill="black" stroke="black" stroke-width="0.25" stroke-miterlimit="10"/>
<path d="M236.555 1H261V4.59176H239.549V13.8756H261V30.8219H236.555V27.1686H258.017V17.5289H236.555V1Z" fill="black" stroke="black" stroke-width="0.25" stroke-miterlimit="10"/>
</svg>
