<svg width="25" height="17" viewBox="0 0 25 17" fill="none" xmlns="http://www.w3.org/2000/svg">
<path d="M17.0455 0C16.0008 -1.66331e-08 14.9665 0.219859 14.0014 0.647024C13.0363 1.07419 12.1594 1.70029 11.4207 2.48959C10.6821 3.27889 10.0962 4.21592 9.69641 5.24719C9.29666 6.27846 9.09091 7.38376 9.09091 8.5C9.09091 9.61624 9.29666 10.7215 9.69641 11.7528C10.0962 12.7841 10.6821 13.7211 11.4207 14.5104C12.1594 15.2997 13.0363 15.9258 14.0014 16.353C14.9665 16.7801 16.0008 17 17.0455 17C18.0901 17 19.1244 16.7801 20.0895 16.353C21.0546 15.9258 21.9315 15.2997 22.6702 14.5104C23.4088 13.7211 23.9947 12.7841 24.3945 11.7528C24.7943 10.7215 25 9.61624 25 8.5C25 7.38376 24.7943 6.27846 24.3945 5.24719C23.9947 4.21592 23.4088 3.27889 22.6702 2.48959C21.9315 1.70029 21.0546 1.07419 20.0895 0.647024C19.1244 0.219859 18.0901 -1.66331e-08 17.0455 0Z" fill="#FF9800"/>
<path d="M7.95455 0C6.90994 -1.66331e-08 5.87556 0.219859 4.91047 0.647024C3.94538 1.07419 3.06848 1.70029 2.32983 2.48959C1.59118 3.27889 1.00526 4.21592 0.605504 5.24719C0.20575 6.27846 0 7.38376 0 8.5C0 9.61624 0.20575 10.7215 0.605504 11.7528C1.00526 12.7841 1.59118 13.7211 2.32983 14.5104C3.06848 15.2997 3.94538 15.9258 4.91047 16.353C5.87556 16.7801 6.90994 17 7.95455 17C8.99915 17 10.0335 16.7801 10.9986 16.353C11.9637 15.9258 12.8406 15.2997 13.5793 14.5104C14.3179 13.7211 14.9038 12.7841 15.3036 11.7528C15.7033 10.7215 15.9091 9.61624 15.9091 8.5C15.9091 7.38376 15.7033 6.27846 15.3036 5.24719C14.9038 4.21592 14.3179 3.27889 13.5793 2.48959C12.8406 1.70029 11.9637 1.07419 10.9986 0.647024C10.0335 0.219859 8.99915 -1.66331e-08 7.95455 0Z" fill="#D50000"/>
<path d="M9.09091 8.5C9.09091 11.387 10.4409 13.9339 12.5 15.47C14.5591 13.9339 15.9091 11.387 15.9091 8.5C15.9091 5.61304 14.5591 3.06607 12.5 1.53C10.4409 3.06607 9.09091 5.61304 9.09091 8.5Z" fill="#FF3D00"/>
</svg>
