<svg width="35" height="10" viewBox="0 0 35 10" fill="none" xmlns="http://www.w3.org/2000/svg">
<path d="M9.43163 1.90386e-07V0.00436865C9.42731 0.00436865 8.06406 0 7.70053 1.31479C7.36729 2.52038 6.42817 5.84741 6.4022 5.93914H6.14254C6.14254 5.93914 5.18177 2.53786 4.84421 1.31042C4.48067 -0.00436844 3.1131 1.90386e-07 3.1131 1.90386e-07H0V10H3.11455V4.06082H3.37421L5.19187 9.99995H7.35431L9.17197 4.06518H9.43163V9.99995H12.5462V1.90386e-07H9.43163ZM20.8093 1.90386e-07C20.8093 1.90386e-07 19.8962 0.0829932 19.4677 1.04839L17.262 5.93914H17.0023V1.90386e-07H13.8878V10H16.8292C16.8292 10 17.7857 9.91264 18.2141 8.95166L20.3766 4.06086H20.6362V10H23.7508V1.90386e-07H20.8093ZM25.1356 4.54135V10H28.2502V6.81275H31.6244C33.0959 6.81275 34.3408 5.86488 34.8039 4.54281H25.1356V4.54135Z" fill="#4DB45E"/>
<path d="M31.6258 0H24.6985C25.0448 1.90448 26.4599 3.43186 28.2891 3.92982C28.7137 4.04591 29.1518 4.10468 29.5917 4.10459H34.9308C34.9784 3.87745 35 3.64594 35 3.40569C35 1.52446 33.4897 0 31.6258 0Z" fill="url(#paint0_linear_425_418)"/>
<defs>
<linearGradient id="paint0_linear_425_418" x1="24.6985" y1="2.05229" x2="35" y2="2.05229" gradientUnits="userSpaceOnUse">
<stop offset="0.3" stop-color="#00B4E6"/>
<stop offset="1" stop-color="#088CCB"/>
</linearGradient>
</defs>
</svg>
