<svg width="24" height="25" viewBox="0 0 24 25" fill="none" xmlns="http://www.w3.org/2000/svg">
<path d="M3.56 18.68C5.16 17.08 5.32 16.68 6.32 17.68C7.32 18.68 6.92 18.8 5.32 20.44C4.12 21.64 2.6 21.4 2.6 21.4C2.6 21.4 2.36 19.88 3.56 18.68Z" fill="#FF9D27"/>
<path d="M6.6 20.32C7.24 18.64 7.44 18.44 6.52 17.92C5.6 17.4 5.6 17.76 5 19.44C4.52 20.68 5.08 21.8 5.08 21.8C5.08 21.8 6.16 21.6 6.6 20.32Z" fill="#FF9D27"/>
<path d="M5.68 18.76C6.04 17.84 6.04 17.64 6.52 17.92C7.04 18.2 6.92 18.32 6.56 19.24C6.32 19.92 5.72 20.08 5.72 20.08C5.72 20.08 5.44 19.48 5.68 18.76Z" fill="#FDF516"/>
<path d="M6.04 17.48C5.52 16.56 5.32 16.76 3.64 17.4C2.4 17.88 2.16 18.92 2.16 18.92C2.16 18.92 3.28 19.48 4.52 19C6.2 18.36 6.56 18.36 6.04 17.48Z" fill="#FF9D27"/>
<path d="M5.2 18.32C6.12 17.96 6.32 17.96 6.04 17.48C5.76 16.96 5.64 17.08 4.72 17.44C4.04 17.68 3.88 18.28 3.88 18.28C3.88 18.28 4.52 18.56 5.2 18.32Z" fill="#FDF516"/>
<path d="M4.76 18.24C5.64 17.36 5.72 17.12 6.28 17.68C6.84 18.24 6.6 18.32 5.72 19.2C5.04 19.88 4.2 19.72 4.2 19.72C4.2 19.72 4.12 18.92 4.76 18.24Z" fill="#FDF516"/>
<path d="M6.6 14.4C4.12 10.24 0 11.96 0 11.96C0 11.96 5.88 6.08 9.84 10.04L6.6 14.4Z" fill="#3BAACF"/>
<path d="M8.52 11.32L9.8 10.04C5.88 6.08 0 11.96 0 11.96C0 11.96 5.16 8.28 8.52 11.32Z" fill="#428BC1"/>
<path d="M9.6 17.4C13.76 19.88 12.04 24 12.04 24C12.04 24 17.92 18.12 13.96 14.16L9.6 17.4Z" fill="#3BAACF"/>
<path d="M12.68 15.48L13.96 14.2C17.92 18.16 12.04 24.04 12.04 24.04C12.04 24.04 15.72 18.84 12.68 15.48Z" fill="#428BC1"/>
<path d="M18.72 11.56C14.04 16.2 8.88 18.72 7.08 16.92C5.28 15.12 7.8 9.96 12.44 5.28C17.88 -0.16 23.92 0.0800001 23.92 0.0800001C23.92 0.0800001 24.12 6.12 18.72 11.56Z" fill="#C5D0D8"/>
<path d="M17.52 10.24C12.88 14.88 8.24 17.92 7.16 16.84C6.08 15.76 9.12 11.12 13.76 6.48C19.2 1.04 24 0 24 0C24 0 22.96 4.8 17.52 10.24Z" fill="#DAE3EA"/>
<path d="M8.92 18.2C8.72 18.4 8.4 18.4 8.2 18.2L5.8 15.8C5.6 15.6 5.6 15.24 5.8 15.04L6.52 14.32L9.64 17.44L8.92 18.2Z" fill="#C94747"/>
<path d="M8.24 17.48C8.04 17.68 7.8 17.76 7.68 17.64L6.32 16.28C6.2 16.16 6.28 15.92 6.48 15.72L7.2 15L8.96 16.76L8.24 17.48Z" fill="#F15744"/>
<path d="M7.56 18.48C7.44 18.6 7.16 18.6 7.04 18.48L5.48 16.92C5.36 16.8 5.4 16.56 5.52 16.44L6 15.96L8.04 18L7.56 18.48Z" fill="#3E4347"/>
<path d="M7.24 18.16C7.12 18.28 6.88 18.32 6.8 18.24L5.72 17.16C5.64 17.08 5.68 16.88 5.84 16.76L6.32 16.28L7.72 17.68L7.24 18.16Z" fill="#62727A"/>
<path d="M23.92 0.0800001C23.92 0.0800001 21.76 9.53674e-08 18.84 1.12L22.88 5.16C24 2.24 23.92 0.0800001 23.92 0.0800001Z" fill="#C94747"/>
<path d="M23.92 0.0800001C23.92 0.0800001 22.2 0.44 19.6 1.92L22.08 4.4C23.56 1.8 23.92 0.0800001 23.92 0.0800001Z" fill="#F15744"/>
<path d="M16.6 9.4C17.7046 9.4 18.6 8.50457 18.6 7.4C18.6 6.29543 17.7046 5.4 16.6 5.4C15.4954 5.4 14.6 6.29543 14.6 7.4C14.6 8.50457 15.4954 9.4 16.6 9.4Z" fill="#EDF4F9"/>
<path d="M16.6 8.72C17.329 8.72 17.92 8.12902 17.92 7.4C17.92 6.67098 17.329 6.08 16.6 6.08C15.871 6.08 15.28 6.67098 15.28 7.4C15.28 8.12902 15.871 8.72 16.6 8.72Z" fill="#3BAACF"/>
<path d="M12.6 13.4C13.7046 13.4 14.6 12.5046 14.6 11.4C14.6 10.2954 13.7046 9.4 12.6 9.4C11.4954 9.4 10.6 10.2954 10.6 11.4C10.6 12.5046 11.4954 13.4 12.6 13.4Z" fill="#EDF4F9"/>
<path d="M12.6 12.72C13.329 12.72 13.92 12.129 13.92 11.4C13.92 10.671 13.329 10.08 12.6 10.08C11.871 10.08 11.28 10.671 11.28 11.4C11.28 12.129 11.871 12.72 12.6 12.72Z" fill="#3BAACF"/>
<path d="M18.76 1.96C18.64 2.08 18.4 2.08 18.28 1.96C18.16 1.84 18.16 1.6 18.28 1.48C18.4 1.36 18.64 1.36 18.76 1.48C18.88 1.6 18.88 1.84 18.76 1.96Z" fill="white"/>
<path d="M19.44 2.96C19.6167 2.96 19.76 2.81673 19.76 2.64C19.76 2.46327 19.6167 2.32 19.44 2.32C19.2633 2.32 19.12 2.46327 19.12 2.64C19.12 2.81673 19.2633 2.96 19.44 2.96Z" fill="white"/>
<path d="M20.4 3.92C20.5767 3.92 20.72 3.77673 20.72 3.6C20.72 3.42327 20.5767 3.28 20.4 3.28C20.2233 3.28 20.08 3.42327 20.08 3.6C20.08 3.77673 20.2233 3.92 20.4 3.92Z" fill="white"/>
<path d="M21.32 4.88C21.4967 4.88 21.64 4.73673 21.64 4.56C21.64 4.38327 21.4967 4.24 21.32 4.24C21.1433 4.24 21 4.38327 21 4.56C21 4.73673 21.1433 4.88 21.32 4.88Z" fill="white"/>
<path d="M22.28 5.8C22.4567 5.8 22.6 5.65673 22.6 5.48C22.6 5.30327 22.4567 5.16 22.28 5.16C22.1033 5.16 21.96 5.30327 21.96 5.48C21.96 5.65673 22.1033 5.8 22.28 5.8Z" fill="white"/>
</svg>
