<svg width="60" height="40" viewBox="0 0 60 40" fill="none" xmlns="http://www.w3.org/2000/svg">
<path d="M0 0V3.63636H35.625V30.9091H24.0825C23.2462 27.7836 20.3475 25.4545 16.875 25.4545C13.4025 25.4545 10.5038 27.7836 9.6675 30.9091H7.5V21.8182H3.75V34.5455H9.6675C10.5038 37.6709 13.4025 40 16.875 40C20.3475 40 23.2462 37.6709 24.0825 34.5455H39.6675C40.5038 37.6709 43.4025 40 46.875 40C50.3475 40 53.2462 37.6709 54.0825 34.5455H60V19.7164L59.8819 19.4309L56.1319 8.52182L55.725 7.27273H39.375V0H0ZM1.875 7.27273V10.9091H18.75V7.27273H1.875ZM39.375 10.9091H53.0269L56.25 20.2273V30.9091H54.0825C53.2462 27.7836 50.3475 25.4545 46.875 25.4545C43.4025 25.4545 40.5038 27.7836 39.6675 30.9091H39.375V10.9091ZM3.75 14.5455V18.1818H15V14.5455H3.75ZM16.875 29.0909C18.9694 29.0909 20.625 30.6964 20.625 32.7273C20.625 34.7582 18.9694 36.3636 16.875 36.3636C14.7806 36.3636 13.125 34.7582 13.125 32.7273C13.125 30.6964 14.7806 29.0909 16.875 29.0909ZM46.875 29.0909C48.9694 29.0909 50.625 30.6964 50.625 32.7273C50.625 34.7582 48.9694 36.3636 46.875 36.3636C44.7806 36.3636 43.125 34.7582 43.125 32.7273C43.125 30.6964 44.7806 29.0909 46.875 29.0909Z" fill="black"/>
</svg>
