<svg width="37" height="32" viewBox="0 0 37 32" fill="none" xmlns="http://www.w3.org/2000/svg">
<path d="M30.8537 22.6667V23.6667H31.6354L31.8241 22.9081L30.8537 22.6667ZM9.29268 22.6667L8.32226 22.9081L8.51098 23.6667H9.29268V22.6667ZM35 6L35.9704 6.24142L36.2793 5H35V6ZM1 1V0C0.612417 0 0.259738 0.223963 0.094921 0.574756C-0.0698962 0.92555 -0.0171662 1.33999 0.230242 1.63834L1 1ZM3.90244 1L4.87286 0.758578C4.76198 0.312868 4.36173 0 3.90244 0V1ZM30.8537 21.6667H9.29268V23.6667H30.8537V21.6667ZM10.2631 22.4252L6.11676 5.75858L4.17592 6.24142L8.32226 22.9081L10.2631 22.4252ZM5.14634 7H35V5H5.14634V7ZM34.0296 5.75858L29.8832 22.4252L31.8241 22.9081L35.9704 6.24142L34.0296 5.75858ZM1 2H3.90244V0H1V2ZM2.93202 1.24142L4.17592 6.24142L6.11676 5.75858L4.87286 0.758578L2.93202 1.24142ZM5.9161 5.36166L1.76976 0.361664L0.230242 1.63834L4.37658 6.63834L5.9161 5.36166ZM10.7805 28.5C10.7805 29.333 10.1098 30 9.29268 30V32C11.2235 32 12.7805 30.4284 12.7805 28.5H10.7805ZM9.29268 30C8.4756 30 7.80488 29.333 7.80488 28.5H5.80488C5.80488 30.4284 7.36182 32 9.29268 32V30ZM7.80488 28.5C7.80488 27.667 8.4756 27 9.29268 27V25C7.36182 25 5.80488 26.5716 5.80488 28.5H7.80488ZM9.29268 27C10.1098 27 10.7805 27.667 10.7805 28.5H12.7805C12.7805 26.5716 11.2235 25 9.29268 25V27ZM32.3415 28.5C32.3415 29.333 31.6707 30 30.8537 30V32C32.7845 32 34.3415 30.4284 34.3415 28.5H32.3415ZM30.8537 30C30.0366 30 29.3659 29.333 29.3659 28.5H27.3659C27.3659 30.4284 28.9228 32 30.8537 32V30ZM29.3659 28.5C29.3659 27.667 30.0366 27 30.8537 27V25C28.9228 25 27.3659 26.5716 27.3659 28.5H29.3659ZM30.8537 27C31.6707 27 32.3415 27.667 32.3415 28.5H34.3415C34.3415 26.5716 32.7845 25 30.8537 25V27Z" fill="black"/>
</svg>
