<svg width="44" height="44" viewBox="0 0 44 44" fill="none" xmlns="http://www.w3.org/2000/svg">
<rect x="0.5" y="0.5" width="43" height="43" rx="1.5" fill="#2AA1DA" stroke="#3B3B3B"/>
<path fill-rule="evenodd" clip-rule="evenodd" d="M14.3372 21.8522C18.4185 20.074 21.14 18.9018 22.5017 18.3354C26.3896 16.7183 27.1975 16.4374 27.7241 16.4281C27.8399 16.426 28.0988 16.4547 28.2666 16.5908C28.4082 16.7058 28.4472 16.861 28.4658 16.97C28.4845 17.0789 28.5077 17.3272 28.4892 17.5211C28.2785 19.7348 27.3669 25.107 26.9031 27.5864C26.7069 28.6355 26.3204 28.9873 25.9463 29.0217C25.1333 29.0965 24.516 28.4844 23.7285 27.9683C22.4963 27.1605 21.8002 26.6577 20.6042 25.8696C19.222 24.9587 20.118 24.4581 20.9057 23.6399C21.1119 23.4258 24.694 20.1676 24.7633 19.872C24.772 19.835 24.7801 19.6972 24.6982 19.6245C24.6163 19.5517 24.4955 19.5766 24.4083 19.5964C24.2848 19.6244 22.3163 20.9255 18.5031 23.4995C17.9443 23.8832 17.4382 24.0701 16.9848 24.0604C16.4849 24.0496 15.5234 23.7777 14.8086 23.5454C13.9318 23.2604 13.235 23.1097 13.2957 22.6257C13.3273 22.3736 13.6745 22.1157 14.3372 21.8522Z" fill="white"/>
</svg>
