<svg width="34" height="11" viewBox="0 0 34 11" fill="none" xmlns="http://www.w3.org/2000/svg">
<path d="M22.1739 0C19.2396 0 17.7391 1.4375 17.7391 3.26471C17.7391 6.56985 21.5826 6.125 21.5826 7.82353C21.5826 8.11029 21.3609 8.79412 19.7496 8.79412C18.1346 8.79412 17.0887 8.17647 17.0887 8.17647L16.5861 10.4118C16.5861 10.4118 17.632 11 19.6313 11C21.6307 11 24.3913 9.47794 24.3913 7.26471C24.3913 4.60294 20.5478 4.39338 20.5478 3.20588C20.5478 2.59927 21.0209 2.14706 22.4104 2.14706C23.3122 2.14706 24.3322 2.82353 24.3322 2.82353L24.8052 0.529412C24.8052 0.529412 23.4637 0 22.1739 0ZM9.66783 0.205882L7.12522 7.67647C7.12522 7.67647 6.95152 7.04044 6.8887 6.64706C5.43631 3.40441 3.07478 2.20588 3.07478 2.20588L5.32174 10.6765H8.39652L12.6539 0.205882H9.66783ZM13.7478 0.205882L12.0922 10.6765H14.9009L16.5861 0.205882H13.7478ZM28.9148 0.205882L24.3322 10.6765H27.1113L27.673 9.17647H31.1617L31.4574 10.6765H34L31.8417 0.205882H28.9148ZM0 0.235294C0 0.235294 5.49174 1.92647 6.77043 6.02941L5.82435 1.26471C5.82435 1.26471 5.41783 0.235294 4.31652 0.235294C3.21522 0.235294 0 0.235294 0 0.235294ZM29.9791 3.2353L30.7478 7.17647H28.4417L29.9791 3.2353Z" fill="#0175AC"/>
<path d="M0 0.240234C0 0.240234 5.5725 1.96523 6.87 6.15023L5.91 1.29024C5.91 1.29024 5.4975 0.240234 4.38 0.240234C3.2625 0.240234 0 0.240234 0 0.240234Z" fill="#FAFF00"/>
</svg>
