<svg width="44" height="44" viewBox="0 0 44 44" fill="none" xmlns="http://www.w3.org/2000/svg">
<rect x="0.5" y="0.5" width="43" height="43" rx="1.5" fill="#6695BD" stroke="#3B3B3B"/>
<path d="M30.903 26.1348C30.1679 24.7811 28.2742 23.1544 27.4924 22.4465C27.2785 22.2527 27.2556 21.9174 27.4503 21.7031C28.9422 20.0626 30.1355 18.1776 30.5463 17.0386C30.7275 16.5354 30.3523 16.0038 29.8238 16.0038H28.2885C27.7825 16.0038 27.4863 16.1896 27.3452 16.4856C26.1052 19.0855 25.0416 20.2107 24.2971 20.8684C23.8802 21.2367 23.2302 20.9316 23.2302 20.3711C23.2302 19.2911 23.2302 17.895 23.2302 16.905C23.2302 16.4249 22.8464 16.0364 22.3731 16.0364L19.5684 16.0038C19.2154 16.0038 19.0137 16.4127 19.2256 16.6995L19.6887 17.3797C19.863 17.6154 19.9571 17.9021 19.9571 18.1964L19.9546 21.2598C19.9546 21.7927 19.3234 22.053 18.9487 21.6796C17.6809 20.4163 16.5809 17.8364 16.1849 16.6028C16.0703 16.2457 15.7435 16.0046 15.3729 16.0038L13.8605 16C13.2931 16 12.8782 16.5505 13.0325 17.1047C14.4144 22.0681 17.2497 26.79 22.3028 27.3019C22.8006 27.3521 23.2302 26.9419 23.2302 26.4341V24.8242C23.2302 24.3625 23.584 23.9656 24.0389 23.9539C24.0549 23.9535 24.0708 23.9535 24.0868 23.9535C25.4233 23.9535 26.9201 25.944 27.4437 26.8749C27.5943 27.1428 27.8757 27.3061 28.1801 27.3061H30.2145C30.8081 27.3061 31.1889 26.6619 30.903 26.1348Z" fill="white"/>
</svg>
