<svg width="302" height="186"
    xmlns="http://www.w3.org/2000/svg"
    xmlns:xlink="http://www.w3.org/1999/xlink" viewBox="0 0 302 186">
    <defs>
        <style>.cls-1{fill:#fff;}.cls-2{fill:url(#linear-gradient);}</style>
        <linearGradient id="linear-gradient" x1="943.52" y1="646.22" x2="972.13" y2="646.22" gradientUnits="userSpaceOnUse">
            <stop offset="1" stop-color="#fff"/>
            <stop offset="1"/>
        </linearGradient>
    </defs>
    <path class="cls-1" d="M1053.22,554.41l16.06-29.28a8.27,8.27,0,0,0,.4-1.24c-.7-.33-1.3-.66-1.94-.91-7.37-2.91-14.75-5.79-22.11-8.72a17.13,17.13,0,0,1-3.55-1.79c-2.22-1.58-2.42-3.52-.73-5.59a12.94,12.94,0,0,1,4.41-3.2,40.15,40.15,0,0,1,10.27-3.36,106,106,0,0,1,31-1.36c.18,0,.34.19.7.39-1.79,3.89-3.86,7.68-5.79,11.53s-3.93,7.75-5.9,11.62-3.94,7.74-5.9,11.61-3.83,7.57-5.75,11.36-4,7.72-5.91,11.61-4,7.65-5.84,11.64a29.3,29.3,0,0,0,9.42-.74c.39-.78.84-1.65,1.28-2.53q10.53-21.21,21-42.41c.39-.8.8-1.59,1.26-2.35a1.33,1.33,0,0,1,1.63-.5,3,3,0,0,1,2.09,4.39c-.41.89-.89,1.76-1.34,2.64s-.79,1.58-1.25,2.48c.65.52,1.26,1,1.89,1.49a19.16,19.16,0,0,1,5.12,5.47,15.33,15.33,0,0,1,.23,16.47,25,25,0,0,1-8.14,8.35,49.28,49.28,0,0,1-13.38,6.14c-2.07.63-4.16,1.2-6.3,1.82-6.57,12.62-13.11,25.23-19.91,38.38,3.11-.45,5.55-.81,8-1.13a117.27,117.27,0,0,1,15.56-1c3.85,0,7.7,0,11.55.2a4.35,4.35,0,0,0,4-1.8c3.34-4.35,6.74-8.67,10.12-13,.49-.63,1-1.26,1.46-1.9a4.08,4.08,0,0,1,2.3-1.42c1.23-.33,2.2-.19,2.55.45s-.06,1.31-.45,1.89q-6.48,9.82-13,19.66a4.07,4.07,0,0,1-.61.64,15.14,15.14,0,0,1-4.94-.56,83.53,83.53,0,0,0-18-1.47,120.2,120.2,0,0,0-16.2.74c-1.13.16-2.24.4-3.38.53s-2.21.53-3.49-.07c.78-2.79,2.37-5.2,3.56-7.75s2.53-5.13,3.8-7.69l4-7.95,3.8-7.7,3.89-7.9c-3.25-.34-6.16.31-9.27.34-1.34,2.56-2.65,5.07-4,7.58-2.49.3-4.81.58-7.26-.22.82-2.67,2.8-4.69,3.51-7.4a12.62,12.62,0,0,0-1.49-.44,55.83,55.83,0,0,1-9.67-2.23,25.69,25.69,0,0,1-9.24-5.3,21.93,21.93,0,0,1-3.13-3.62,9.62,9.62,0,0,1-1.14-9.24,34.61,34.61,0,0,1,4.39-8c1-1.37,2.07-2.69,3.12-4a3.06,3.06,0,0,1,2.54-1.47,3.31,3.31,0,0,1,3.25,1.66c-.41.54-.87,1.17-1.36,1.78-1.76,2.17-3.56,4.32-5.31,6.5a27.52,27.52,0,0,0-1.68,2.47,8.42,8.42,0,0,0-.4,8.67,15,15,0,0,0,3.15,4.33c4.23,4.14,9.54,6.12,15.5,6.76.92.1,1.85.09,2.93.14l7.92-14.42m29.25-53.28a48.78,48.78,0,0,0-6.77-.42,79.68,79.68,0,0,0-18.31,1.23,35,35,0,0,0-10.19,3.5,10.1,10.1,0,0,0-3.67,3.11,1.8,1.8,0,0,0,.88,2.91c.67.26,1.31.58,2,.86l22,9,2.34,1c.41-.62.76-1.08,1-1.59C1075.24,514.34,1078.74,507.93,1082.47,501.13Zm-14.85,65.62a3,3,0,0,0,1,.16c6.66-1.6,12.64-4.36,17.35-9.19a20.49,20.49,0,0,0,6.28-13.34,14.22,14.22,0,0,0-4.74-11.91,12.7,12.7,0,0,0-1.6-1.05Z" transform="translate(-909.35 -498.41)"/>
    <path class="cls-1" d="M1182.86,633.24c2.4-.47,18.65-.62,28-.26.5,1.28.5,1.28.25,3.17-2,.15-4.1,0-6.16.06s-4.16,0-6.24,0h-5.92c-2,0-4.11-.07-6.32.08-.21,2.77-.09,5.27-.1,7.85a62.62,62.62,0,0,0,8.18.2c2.81,0,5.62,0,8.42,0H1211a103.35,103.35,0,0,1,.13,15c-2.3.37-24.66.46-28.38.11v-3a19.07,19.07,0,0,1,2.09-.23c6.45,0,12.9,0,19.34,0h3a23.09,23.09,0,0,0,0-8.34h-24.22C1182.55,645.7,1182.45,636.63,1182.86,633.24Z" transform="translate(-909.35 -498.41)"/>
    <path class="cls-1" d="M1177,644.36v14.93a1.45,1.45,0,0,1-.21.15.56.56,0,0,1-.26.14l-26.51,0c-.41,0-.81-.06-1.3-.1a5.48,5.48,0,0,1,.14-3.34h24.41a14.91,14.91,0,0,0,.24-4.16c0-1.27,0-2.53,0-3.94a21.25,21.25,0,0,0-2.19-.23H1149c-.5-2.19-.56-11.79-.09-14.8,4.61-.25,9.26-.08,13.91-.11s9.32,0,14.19,0l.2,3.12c-.84.07-1.54.17-2.23.17-6.45,0-12.89,0-19.34,0-1,0-2,.06-3,.09a3.13,3.13,0,0,0-.35.93c0,2.24,0,4.47,0,6.88a19.34,19.34,0,0,0,2.09.23c6.44,0,12.89,0,19.33,0Z" transform="translate(-909.35 -498.41)"/>
    <path class="cls-1" d="M909.64,633h28c.68.93.39,1.88.31,3a15.38,15.38,0,0,1-1.75.2c-6.56,0-13.11,0-19.66,0h-3.24c-.46,2.68-.12,5.2-.25,7.89a18.38,18.38,0,0,0,2.1.25c6.45,0,12.9,0,19.35,0h3.16c.73,1.69.31,3.35.38,5s0,3.32,0,5v4.88l-.37.25c-.09,0-.18.13-.27.13l-26.84,0a6.8,6.8,0,0,1-1-.15,6.4,6.4,0,0,1,.07-3.3h24.53a16.8,16.8,0,0,0,.21-4.14c0-1.26,0-2.53,0-4-.79-.08-1.47-.22-2.15-.22H909.82C909.29,645.71,909.19,637,909.64,633Z" transform="translate(-909.35 -498.41)"/>
    <path class="cls-1" d="M1118.23,636.22v8c3.9.51,7.83-.06,11.81.32a6.08,6.08,0,0,1,.07,3.31h-11.68c-.65,2.72-.11,5.31-.38,8,.89.08,1.58.19,2.27.19h19.36c1,0,2,.07,3.25.11,0,1.08.1,2,.16,3.15a11.3,11.3,0,0,1-1.54.23q-13.11,0-26.22,0a3.16,3.16,0,0,1-.6-.11,1.39,1.39,0,0,1-.21-.21.42.42,0,0,1-.1-.25q0-12.6,0-25.19a5.38,5.38,0,0,1,.21-1c3.09-.31,6.19-.1,9.28-.14s6,0,9.06,0,6.21-.17,9.44.16v3.15c-4,.37-8,.11-12,.16S1122.48,636.22,1118.23,636.22Z" transform="translate(-909.35 -498.41)"/>
    <path class="cls-1" d="M1050.05,636.23a5.23,5.23,0,0,0-.34,1.1c0,2.24,0,4.48,0,6.87a19.41,19.41,0,0,0,2.16.23c2.6,0,5.2,0,7.8,0,.7,0,1.41.12,2.21.19v3.18c-3.93.33-7.85-.07-11.7.22-.61,1.93-.68,4.43-.26,7.91a69.3,69.3,0,0,0,8,.17c2.71,0,5.41,0,8.11,0h8.13c.72,1,.36,2.11.4,3.06-.14.14-.2.22-.27.28s-.18.14-.27.14l-26.19,0c-.51,0-1,0-1.35-.07a2.9,2.9,0,0,1-.41-.29.54.54,0,0,1-.08-.28q0-12.29,0-24.56a7.49,7.49,0,0,1,.13-1.16c0-.08.12-.15.19-.22,2.52-.45,18.89-.59,27.41-.24.88.89.43,2,.5,3.17-.78.09-1.46.23-2.14.24h-22Z" transform="translate(-909.35 -498.41)"/>
    <path class="cls-1" d="M1002.58,648h-20.7a1.16,1.16,0,0,0-.27.2.49.49,0,0,0-.11.27c0,3.61,0,7.21,0,10.75-1.3.63-2.42.29-3.5.34-.42-2.28-.54-22.42-.17-26.49a8.22,8.22,0,0,1,1.43-.26q12.65,0,25.28,0c.51,0,1,.1,1.47.14.44,2.29.58,21.46.2,26.52h-3.54c-.07-2,0-3.92,0-5.85S1002.69,650,1002.58,648Zm0-11.82h-7.11c-2.39,0-4.77,0-7.15,0s-4.51-.27-6.9.26c0,1.35-.06,2.61,0,3.86s-.33,2.69.34,4.11h3.12l17.1-.07a.57.57,0,0,0,.28-.08,2.91,2.91,0,0,0,.3-.33Z" transform="translate(-909.35 -498.41)"/>
    <path class="cls-1" d="M1026.19,646l13.73-12.79a2.74,2.74,0,0,1,.53.15.39.39,0,0,1,.09.26c0,8.56,0,17.13,0,25.78-.5.08-.89.2-1.29.22-.71,0-1.43,0-2.27,0a29.91,29.91,0,0,1-.13-4.49c0-1.47,0-2.93,0-4.39s0-2.73,0-4.1a28.68,28.68,0,0,0-.11-4.18c-1-.5-1.38,0-1.8.41l-6.85,6.4c-.58.54-1.2,1-1.95,1.68-1.78-1.66-3.45-3.24-5.14-4.8s-3.13-3-4.72-4.37a2.63,2.63,0,0,0-.5.27.78.78,0,0,0-.09.27,1.35,1.35,0,0,0,0,.29v16.62c-1.17.68-2.32.26-3.59.4a74.12,74.12,0,0,1-.18-8.79c0-2.92,0-5.85,0-8.77v-8.64a1.86,1.86,0,0,1,.44-.18.44.44,0,0,1,.28.11C1017,637.48,1021.45,641.6,1026.19,646Z" transform="translate(-909.35 -498.41)"/>
    <path class="cls-2" d="M947.19,644.15c2.7.36,16.18.45,21,.16a11.64,11.64,0,0,0,.22-1.6c0-3.11,0-6.23,0-9.31a4.56,4.56,0,0,1,3.27-.4,1.8,1.8,0,0,1,.24.2.54.54,0,0,1,.15.26q0,12.59,0,25.16a4.7,4.7,0,0,1-.19.9,7.67,7.67,0,0,1-3.54-.18v-11c-2.57-.5-18-.53-21.08,0a39,39,0,0,0-.12,5.42c0,1.84,0,3.69,0,5.5a4.67,4.67,0,0,1-3.67.08v-26c1.06-.71,2.18-.43,3.43-.36.5,1.87.16,3.72.23,5.53S947.19,642.15,947.19,644.15Z" transform="translate(-909.35 -498.41)"/>
    <path class="cls-1" d="M1080.46,632.81l3.15-.14a16.79,16.79,0,0,1,.27,2.05q0,9.06,0,18.12v3.07c.82.08,1.5.21,2.18.21,6.44,0,12.88,0,19.32,0h3.11c.59,1.2.25,2.23.32,3.23-2.58.33-25.47.37-28.44.08C1080,656.93,1080,635.32,1080.46,632.81Z" transform="translate(-909.35 -498.41)"/>
    <path class="cls-1" d="M1077.78,680.35l-2.13,4c-.46-.46-.8-.68-.94-1q-2.18-4.68-4.31-9.38c-.24-.53-.22-.94.71-1,1.65,2.61,2.53,5.64,4.25,8.55,1.32-1.64,2.27-3.07,1.13-5a28.55,28.55,0,0,1-1.35-3.14c.69-.54,1.07-.3,1.34.2.46.83.89,1.68,1.34,2.52,1.4-.74.93-2.7,2.73-3.19,0,.45.16.74.08,1a10.64,10.64,0,0,1-.88,1.87c-1.3,2-1,3.85.63,5.7,1.27-1.25,1.53-3,2.37-4.37s1-3.09,2.47-4.19c.22.32.44.51.41.62a59.82,59.82,0,0,1-5.17,10.65C1079,683.27,1079.34,681.4,1077.78,680.35Z" transform="translate(-909.35 -498.41)"/>
    <path class="cls-1" d="M1042.52,681c.17-3,.31-5.42.46-7.83,0,0,.17-.09.27-.11a1.4,1.4,0,0,1,.29,0c.57,1.84.66,7.87.17,10.88-.63.21-.92-.2-1.21-.59-1.44-1.91-2.86-3.83-4.34-5.72a1.19,1.19,0,0,0-1-.31,1.12,1.12,0,0,0-.62.85c-.08,1.65,0,3.31-.11,5,0,.27-.33.54-.54.85-.31-.27-.57-.4-.57-.52,0-3.31-.07-6.62-.08-9.93,0-.15.2-.32.34-.45s.18-.07.49-.18c1.29,1,2,2.53,3.07,3.82A43.16,43.16,0,0,0,1042.52,681Z" transform="translate(-909.35 -498.41)"/>
    <path class="cls-1" d="M1135.55,684.41a18,18,0,0,1-3.25-4.14,1.66,1.66,0,0,0-2.14-.73c-.86,1.34.28,3.06-.76,4.41-.82-.05-.77-.62-.78-1,0-3.2,0-6.4,0-9.71a7.89,7.89,0,0,1,5.16-.11,3.05,3.05,0,0,1,1.45,4.82,14.19,14.19,0,0,1-1.49,1.41C1133.52,681.15,1136,682.06,1135.55,684.41Zm-5.53-6.14a25.33,25.33,0,0,0,3.08-.28,2,2,0,0,0,1.47-2,1.85,1.85,0,0,0-1.56-1.89,3.76,3.76,0,0,0-3,.1Z" transform="translate(-909.35 -498.41)"/>
    <path class="cls-1" d="M989.58,678a9.9,9.9,0,0,1,.85,1.19c1.23,2.33-.07,4.62-2.83,4.92a34.91,34.91,0,0,1-3.56,0,8.51,8.51,0,0,1-.37-1.71c0-3.1-.06-6.19,0-9.36a9.16,9.16,0,0,1,3.53-.22c2.23.12,3.39,1.49,3,3.53A8.31,8.31,0,0,1,989.58,678Zm-4.59.81a10.24,10.24,0,0,0,.14,4,20.72,20.72,0,0,0,2.86,0,2,2,0,0,0,1.67-2.14,1.85,1.85,0,0,0-1.67-1.82A26.66,26.66,0,0,0,985,678.82Zm0-1.15c1.19-.06,2,0,2.81-.16a2,2,0,0,0,1.43-1.71,1.89,1.89,0,0,0-1.33-1.75,3.15,3.15,0,0,0-2.91.15Z" transform="translate(-909.35 -498.41)"/>
    <path class="cls-1" d="M1005.15,679.42c.45,1.71,2.27,2.67,2.13,4.38a.84.84,0,0,1-1.18-.4c-.81-1.13-1.56-2.29-2.36-3.42-.34-.48-.38-.46-2-.4-.69,1.34.32,3-.67,4.37-.28-.16-.56-.22-.6-.35-.34-1.18-.34-7.72,0-10.49A8.7,8.7,0,0,1,1005,673a3.07,3.07,0,0,1,2,4.81A12.5,12.5,0,0,1,1005.15,679.42Zm-3.57-1.21c.91,0,1.53,0,2.14,0a3.92,3.92,0,0,0,.91-.13,2.2,2.2,0,0,0,1.69-2.17,2,2,0,0,0-1.69-1.83,4.39,4.39,0,0,0-3,.06Z" transform="translate(-909.35 -498.41)"/>
    <path class="cls-1" d="M1053.69,684a43.36,43.36,0,0,1-.19-10.77c3.45-.82,5.78-.19,7.42,2a5.13,5.13,0,0,1,.08,6.28C1059.18,684,1056.63,684.5,1053.69,684Zm1-1.12c2.73.29,4.6-.5,5.65-2.6a3.89,3.89,0,0,0-.69-4.62,4.51,4.51,0,0,0-5-1.45Z" transform="translate(-909.35 -498.41)"/>
    <path class="cls-1" d="M1114.31,672.38a8.87,8.87,0,0,1,1.08,1.32c1.38,2.94,2.74,5.87,4.07,8.82.23.51.54,1.12-.37,1.52-1.07-.82-1.07-2.23-1.93-3.33-1.63-.49-3.36-.14-4.82-.2-1.34,1.1-1.08,2.82-2.72,3.67-.09-.49-.3-.89-.18-1.16C1111,679.64,1112.52,676.27,1114.31,672.38Zm2.15,6.86a14,14,0,0,0-1.73-4c-1.43,2-1.43,2-1.86,4Z" transform="translate(-909.35 -498.41)"/>
    <path class="cls-1" d="M1018.72,680.43l-1.94,3.57c-.8-.22-.94-.58-.68-1.13,1.44-3.13,2.87-6.26,4.32-9.39a3.37,3.37,0,0,1,.52-.64c.33.14.63.17.69.31q2.36,5.05,4.67,10.15c.06.14-.11.36-.22.68-1.69-.49-1.31-2.3-2.64-3.36C1022.17,680.21,1020.52,680.61,1018.72,680.43Zm4.42-1.2c-.48-1.14-.86-2.12-1.3-3.07a5.91,5.91,0,0,0-.78-1c-.8,1.35-1.63,2.52-1.58,4.09Z" transform="translate(-909.35 -498.41)"/>
    <path class="cls-1" d="M1095,683.9c-.18-.23-.51-.45-.51-.67,0-3.31,0-6.62,0-10,1.11-.73,2.29-.43,3.38-.44a5.5,5.5,0,0,1,3.28.43c-.43.28-.69.61-1,.62-1.35.06-2.69,0-4,0-.64,1.27-.3,2.42-.36,3.42,1.13,1.11,3-.28,4,1.3-1.28.69-2.62.07-4,.61v3.67c0,.2,0,.39,0,.59Zm3.11-5.25v-.16h-2.37v.16Z" transform="translate(-909.35 -498.41)"/>
    <path class="cls-1" d="M1095,683.9l.73-.4,5,0c-.08.17-.17.47-.25.47C1098.66,684,1096.85,684,1095,683.9Z" transform="translate(-909.35 -498.41)"/>
    <path class="cls-1" d="M1100.73,683.55l-5,0c0-.2,0-.39,0-.59l4,.07C1100.28,683,1100.64,683.07,1100.73,683.55Z" transform="translate(-909.35 -498.41)"/>
    <path class="cls-1" d="M1098.14,678.65h-2.38v-.16h2.37Z" transform="translate(-909.35 -498.41)"/>
</svg>